/* XPM */
static char * opencubicplayer_mini_xpm[] = {
"16 16 211 2",
"  	c None",
". 	c #D3C9C7",
"+ 	c #D8D4CF",
"@ 	c #CFBBC2",
"# 	c #BEA7AA",
"$ 	c #BDADA9",
"% 	c #BFBBB2",
"& 	c #C9CDC2",
"* 	c #D0CBC6",
"= 	c #C3B9B6",
"- 	c #BEADAC",
"; 	c #B3A19F",
"> 	c #B39E9D",
", 	c #BDABA9",
"' 	c #BCB8B0",
") 	c #C3C3BC",
"! 	c #D2D1CB",
"~ 	c #C6C3BE",
"{ 	c #BEB7B2",
"] 	c #BBAFAB",
"^ 	c #BCAAA8",
"/ 	c #8C7F7D",
"( 	c #B69E9F",
"_ 	c #BCA4A4",
": 	c #BDB3AE",
"< 	c #BDB8AE",
"[ 	c #B6B3AC",
"} 	c #C7C1BF",
"| 	c #C7C0BD",
"1 	c #BAB6AE",
"2 	c #B0AAA1",
"3 	c #B6A9A4",
"4 	c #BEACA9",
"5 	c #B49E9D",
"6 	c #AE9897",
"7 	c #B49699",
"8 	c #BC9FA0",
"9 	c #AFA29D",
"0 	c #A9A195",
"a 	c #B5ACA2",
"b 	c #B5ABA7",
"c 	c #BBB2B3",
"d 	c #CCC3C1",
"e 	c #B8B0AB",
"f 	c #B7ADA3",
"g 	c #B3A79D",
"h 	c #6D6261",
"i 	c #B8A2A1",
"j 	c #B5999B",
"k 	c #B39798",
"l 	c #B39496",
"m 	c #B29295",
"n 	c #59514F",
"o 	c #AFA598",
"p 	c #BAB1A4",
"q 	c #B7ACA5",
"r 	c #8E8581",
"s 	c #929292",
"t 	c #B3A9A4",
"u 	c #B9A79F",
"v 	c #BDA39D",
"w 	c #BDA19E",
"x 	c #B89B98",
"y 	c #B79796",
"z 	c #BC9E9B",
"A 	c #B89F9C",
"B 	c #B7A39D",
"C 	c #BBABA3",
"D 	c #B6B1AA",
"E 	c #AFABA5",
"F 	c #7E7C76",
"G 	c #787771",
"H 	c #989897",
"I 	c #BFB7B5",
"J 	c #AA9A96",
"K 	c #B49D98",
"L 	c #B79997",
"M 	c #A98E8B",
"N 	c #655754",
"O 	c #AE9793",
"P 	c #BAA5A0",
"Q 	c #B7A69E",
"R 	c #B3A89F",
"S 	c #9B9791",
"T 	c #797772",
"U 	c #716E68",
"V 	c #777571",
"W 	c #E9E4E6",
"X 	c #AB9FA0",
"Y 	c #A99392",
"Z 	c #AD9791",
"` 	c #A1948C",
" .	c #B2A39B",
"..	c #B3A29B",
"+.	c #A69B92",
"@.	c #7E7871",
"#.	c #726E6A",
"$.	c #787671",
"%.	c #797872",
"&.	c #7B7975",
"*.	c #9C9B9B",
"=.	c #DEE2E7",
"-.	c #E0DFE3",
";.	c #C6C1C0",
">.	c #9E8C8B",
",.	c #B39896",
"'.	c #B4A29C",
").	c #B3ACA2",
"!.	c #B1A9A2",
"~.	c #9A918A",
"{.	c #726D68",
"].	c #716E67",
"^.	c #74716C",
"/.	c #787571",
"(.	c #7B7875",
"_.	c #9B9A9C",
":.	c #D6D4DE",
"<.	c #D5D4DA",
"[.	c #D2D2D3",
"}.	c #A59F9C",
"|.	c #9C8B88",
"1.	c #ACA09B",
"2.	c #A69F97",
"3.	c #928D89",
"4.	c #706A68",
"5.	c #6D6767",
"6.	c #746F6E",
"7.	c #797371",
"8.	c #807A78",
"9.	c #817B79",
"0.	c #7B7677",
"a.	c #ADADB4",
"b.	c #C6C3D4",
"c.	c #C6C5CF",
"d.	c #CAC9CE",
"e.	c #C0BCBD",
"f.	c #9E9694",
"g.	c #918686",
"h.	c #908987",
"i.	c #807675",
"j.	c #756A6B",
"k.	c #756969",
"l.	c #7C7070",
"m.	c #7C7574",
"n.	c #7C7675",
"o.	c #7C7775",
"p.	c #807A7B",
"q.	c #BBBAC3",
"r.	c #B9B6C9",
"s.	c #BDBBCB",
"t.	c #BFBDC7",
"u.	c #BFC1C5",
"v.	c #AEAFB0",
"w.	c #928E91",
"x.	c #90878B",
"y.	c #726A6C",
"z.	c #746D6C",
"A.	c #736D6B",
"B.	c #7A7574",
"C.	c #7B7573",
"D.	c #898281",
"E.	c #A29996",
"F.	c #B5AEAE",
"G.	c #B9B9C0",
"H.	c #A4A4B6",
"I.	c #ABAABD",
"J.	c #9D9EA5",
"K.	c #9A9D9B",
"L.	c #A2A0A4",
"M.	c #979295",
"N.	c #989194",
"O.	c #7A7876",
"P.	c #8E8F8B",
"Q.	c #9D9C9B",
"R.	c #9C9C9F",
"S.	c #999794",
"T.	c #A3A099",
"U.	c #AFACA9",
"V.	c #BAB8BE",
"W.	c #B0B0B3",
"X.	c #A4A7AD",
"Y.	c #9D9EAD",
"Z.	c #8E929A",
"`.	c #868886",
" +	c #878483",
".+	c #9D989B",
"++	c #928E90",
"@+	c #83817E",
"#+	c #898A86",
"$+	c #8D8C8E",
"%+	c #909096",
"&+	c #85848A",
"*+	c #858584",
"=+	c #8E8D91",
"-+	c #A3A0B2",
";+	c #A2A1B2",
">+	c #A6A7B1",
",+	c #9B9CB4",
"'+	c #9293AB",
")+	c #7E8087",
"!+	c #898A8D",
"~+	c #9998AB",
"{+	c #9997A7",
"]+	c #7F7F7B",
"^+	c #99989B",
"/+	c #96959B",
"(+	c #9491A2",
"_+	c #8B8A91",
":+	c #86848B",
"<+	c #8F8C9F",
"[+	c #9D97B9",
"                . +             ",
"            @ # $ % &           ",
"        * = - ; > , ' )         ",
"    ! ~ { ] ^ / ( _ : < [ }     ",
"  | 1 2 3 4 5 6 7 8 9 0 a b c   ",
"d e f g h i j k l m n o p q r s ",
"  t u v w x y z A B C D E F G H ",
"  I J K L M N O P Q R S T U V H ",
"  W X Y L Z `  ...+.@.#.$.%.&.*.",
"=.-.;.>.,.'.).!.~.{.].^./.V (._.",
":.<.[.}.|.1.2.3.4.5.6.7.8.9.0.a.",
"b.c.d.e.f.g.h.i.j.k.l.m.n.o.p.q.",
"r.s.t.u.v.w.x.y.z.A.B.C.D.E.F.G.",
"H.I.J.K.L.M.N.O.P.Q.R.S.T.U.V.W.",
"X.Y.Z.`. +.+++@+#+$+%+&+*+=+-+;+",
">+,+'+)+!+~+{+s ]+^+/+(+_+:+<+[+"};
