/* XPM */
static char * opencubicplayer_48x48_xpm[] = {
"48 48 138 2",
"  	c None",
". 	c #2F3030",
"+ 	c #242424",
"@ 	c #333333",
"# 	c #1B1B1B",
"$ 	c #010000",
"% 	c #212121",
"& 	c #0000FF",
"* 	c #000DF2",
"= 	c #0041BE",
"- 	c #00758A",
"; 	c #00A956",
"> 	c #00DD22",
", 	c #00FF00",
"' 	c #060506",
") 	c #222127",
"! 	c #18171F",
"~ 	c #0A090D",
"{ 	c #19181C",
"] 	c #2B2A33",
"^ 	c #2C2B37",
"/ 	c #25242F",
"( 	c #09080C",
"_ 	c #1B1A1E",
": 	c #27262E",
"< 	c #2D2C36",
"[ 	c #2D2C37",
"} 	c #2B2A36",
"| 	c #262531",
"1 	c #22212D",
"2 	c #1F1E2B",
"3 	c #1E1D2B",
"4 	c #201F2D",
"5 	c #22212F",
"6 	c #0C0B12",
"7 	c #36353F",
"8 	c #36353E",
"9 	c #34333C",
"0 	c #31303A",
"a 	c #2C2B36",
"b 	c #292834",
"c 	c #1F1E2C",
"d 	c #21202E",
"e 	c #2F2E2E",
"f 	c #FFFFFF",
"g 	c #0000A9",
"h 	c #2B2A35",
"i 	c #52515B",
"j 	c #51515B",
"k 	c #51505B",
"l 	c #0D0C0C",
"m 	c #86868C",
"n 	c #8C8C91",
"o 	c #8B8B91",
"p 	c #20206A",
"q 	c #24236D",
"r 	c #33323C",
"s 	c #292836",
"t 	c #272634",
"u 	c #252432",
"v 	c #147A1C",
"w 	c #167C1E",
"x 	c #167C1D",
"y 	c #010044",
"z 	c #5A5962",
"A 	c #5C5B63",
"B 	c #5D5D65",
"C 	c #4D4D58",
"D 	c #4F4E59",
"E 	c #3F3F48",
"F 	c #3E3D47",
"G 	c #3C3B45",
"H 	c #FF0000",
"I 	c #52515C",
"J 	c #3B3A3A",
"K 	c #6E0707",
"L 	c #670000",
"M 	c #252431",
"N 	c #7A7A82",
"O 	c #7F7E86",
"P 	c #7D7D85",
"Q 	c #201F35",
"R 	c #232238",
"S 	c #197E20",
"T 	c #177D1F",
"U 	c #16155A",
"V 	c #18175C",
"W 	c #0C0B10",
"X 	c #201F2E",
"Y 	c #100F18",
"Z 	c #2C2B38",
"` 	c #4A4954",
" .	c #030204",
"..	c #1D1C2B",
"+.	c #0D0C11",
"@.	c #040303",
"#.	c #13121C",
"$.	c #807F85",
"%.	c #1A1927",
"&.	c #050406",
"*.	c #676666",
"=.	c #696868",
"-.	c #686868",
";.	c #3F3E44",
">.	c #595861",
",.	c #4E4E59",
"'.	c #3F3F44",
").	c #373636",
"!.	c #383737",
"~.	c #0F0E10",
"{.	c #24232D",
"].	c #21202F",
"^.	c #151420",
"/.	c #060505",
"(.	c #050404",
"_.	c #313030",
":.	c #111015",
"<.	c #302F3A",
"[.	c #1C1B29",
"}.	c #07060A",
"|.	c #0B0A0A",
"1.	c #020101",
"2.	c #11115A",
"3.	c #23236D",
"4.	c #0E0D16",
"5.	c #3A393C",
"6.	c #55545D",
"7.	c #454450",
"8.	c #363637",
"9.	c #090808",
"0.	c #17161E",
"a.	c #2A2936",
"b.	c #09080D",
"c.	c #070606",
"d.	c #282929",
"e.	c #191919",
"f.	c #1B1B1C",
"g.	c #2C2C2C",
"                                                                                                ",
"  . + + + + + + + + + + + + + + + + + + + + + + + + + + + + + + + + + + + + + + + + + + + + @   ",
"  # $ $ $ $ $ $ $ $ $ $ $ $ $ $ $ $ $ $ $ $ $ $ $ $ $ $ $ $ $ $ $ $ $ $ $ $ $ $ $ $ $ $ $ $ %   ",
"  # $ $ $ $ $ $ $ $ $ $ $ $ $ $ $ $ $ $ $ $ $ $ $ $ $ $ $ $ $ $ $ $ $ $ $ $ $ $ $ $ $ $ $ $ %   ",
"  # $ $ & & $ $ $ $ $ $ $ & & $ $ $ $ $ $ $ $ $ $ $ $ $ $ $ $ $ $ $ $ $ $ $ $ $ & & $ $ $ $ %   ",
"  # $ $ * * $ $ $ $ $ $ $ * * $ $ $ $ $ $ $ $ $ $ $ $ $ $ $ $ $ $ $ $ $ $ $ $ $ * * $ $ $ $ %   ",
"  # $ $ = = $ $ $ $ $ $ $ = = $ $ $ $ $ $ $ $ $ $ $ $ $ $ $ $ = = $ $ $ $ $ $ $ = = $ $ $ $ %   ",
"  # $ $ - - $ - - $ $ $ $ - - $ $ $ $ $ $ $ $ $ $ $ $ $ $ $ $ - - $ - - $ $ $ $ - - $ $ $ $ %   ",
"  # $ $ ; ; $ ; ; $ $ $ $ ; ; $ $ $ $ $ $ $ ; ; $ $ $ $ $ $ $ ; ; $ ; ; $ $ $ $ ; ; $ $ $ $ %   ",
"  # $ $ > > $ > > $ $ $ $ > > $ $ $ $ $ $ $ > > $ $ $ $ $ $ $ > > $ > > $ $ $ $ > > $ $ $ $ %   ",
"  # $ $ , , $ , , $ $ $ $ , , $ $ $ $ $ $ $ , , $ $ $ $ $ $ $ , , $ , , $ $ $ $ , , $ $ $ $ %   ",
"  # $ $ , , $ , , $ $ $ $ , , $ $ $ $ $ $ $ , , $ $ $ $ $ $ $ , , $ , , $ $ $ $ , , $ $ $ $ %   ",
"  # $ $ , , $ , , $ $ $ $ , , $ $ $ $ , , $ , , $ , , $ $ $ $ , , $ , , $ , , $ , , $ $ $ $ %   ",
"  # $ $ , , $ , , $ $ $ $ , , $ $ $ $ , , $ , , $ , , $ , , $ , , $ , , $ , , $ , , $ $ $ $ %   ",
"  # $ $ , , $ , , $ , , $ , , $ $ $ $ , , $ , , $ , , $ , , $ , , $ , , $ , , $ , , $ $ $ $ %   ",
"  # $ $ , , $ , , $ , , $ , , $ , , $ , , $ , , $ , , $ , , $ , , $ , , $ , , $ , , $ $ $ $ %   ",
"  # $ $ , , $ , , $ , , $ , , $ , , $ , , $ , , $ , , $ , , $ , , $ , , $ , , $ , , $ $ $ $ %   ",
"  # $ $ , , $ , , $ , , $ , , $ , , $ , , $ , , $ , , $ , , $ , , $ , , $ , , $ , , $ $ $ $ %   ",
"  # $ $ , , $ , , $ , , $ , , $ , , $ , , $ , , ' , , ) , , ! , , ~ , , $ , , $ , , $ $ $ $ %   ",
"  # $ $ , , $ , , $ , , $ , , $ , , { , , ] , , ^ , , ^ , , ^ , , ^ , , / , , ( , , $ $ $ $ %   ",
"  # $ $ $ $ $ $ $ $ _ ) : ] < [ ^ ^ ^ ^ ^ ^ ^ ^ ^ ^ ^ ^ ^ ^ } | 1 2 3 4 5 5 5 6 $ $ $ $ $ $ %   ",
"  # $ $ $ $ $ $ $ $ 7 7 7 8 9 0 [ ^ ^ ^ ^ ^ ^ ^ ^ ^ [ a b c d 5 5 5 5 5 5 5 5 6 $ $ $ $ $ $ %   ",
"  # $ $ $ e e $ $ $ f f f f f 7 g g g 9 0 a h i j 5 5 5 5 k k 5 5 5 , , , , , 6 g g g $ $ $ %   ",
"  # $ $ $ l l $ $ $ m n o m m 7 p q q 7 r 5 5 s t 5 5 5 5 u u 5 5 5 v w x v v 6 y y y $ $ $ %   ",
"  # $ $ $ e e $ $ $ 7 z A 7 7 7 7 B B 7 r 5 5 C D 5 5 5 5 k k 5 5 5 , , , , , 6 g g g $ $ $ %   ",
"  # $ $ $ l l $ $ $ 7 E F 7 7 7 7 G G 7 r 5 5 s t 5 5 5 5 u u 5 5 5 v w x v v 6 y y y $ $ $ %   ",
"  # $ $ $ H H H $ $ 7 z A 7 7 7 g g g 7 r 5 5 C D 5 5 5 5 k k 5 5 5 5 k I 5 5 6 $ J J $ $ $ %   ",
"  # $ $ $ K K L $ $ 7 E F 7 7 7 p q q 7 r 5 5 s t 5 5 5 5 u u 5 5 5 5 u M 5 5 6 $ $ $ $ $ $ %   ",
"  # $ $ $ e e $ $ $ 7 z A 7 7 7 7 B B 7 r 5 f f f f f 5 5 k k 5 5 5 5 k I 5 5 6 g g g $ $ $ %   ",
"  # $ $ $ l l $ $ $ 7 E F 7 7 7 7 G G 7 r 5 N O P N N 5 Q R R 5 5 5 5 u M 5 5 6 y y y $ $ $ %   ",
"  # $ $ $ e e $ $ $ f f f f f 7 g g g 7 r 5 , , , , , 5 g g g 5 5 5 , , , , , 6 $ J J $ $ $ %   ",
"  # $ $ $ l l $ $ $ m n o m m 7 p q q 7 r 5 v S T v v 5 U V V 5 5 5 v w x v v 6 $ $ $ $ $ $ %   ",
"  # $ $ $ e e $ $ $ 7 z A 7 7 7 7 B B 7 r 5 5 C D 5 5 5 5 k k 5 5 5 5 k I 5 5 6 $ J J $ $ $ %   ",
"  # $ $ $ l l $ $ $ 7 E F 7 7 7 7 G G 7 r 5 5 s t 5 5 5 5 u u 5 5 5 5 u M 5 5 6 $ $ $ $ $ $ %   ",
"  # $ $ $ e e $ $ $ 7 z A 7 7 7 g g g 7 r 5 5 C D 5 5 5 5 k k 5 5 5 5 k I 5 5 W g g g $ $ $ %   ",
"  # $ $ $ l l $ $ $ 7 E F 7 7 7 p q q 7 ^ 5 5 s t 5 5 5 5 u u 5 5 5 5 u M X Y $ y y y $ $ $ %   ",
"  # $ $ $ e e $ $ $ 7 z A 7 7 7 7 B B 7 Z 5 5 C D 5 5 5 5 k k 5 5 5 5 k `  .$ $ $ J J $ $ $ %   ",
"  # $ $ $ l l $ $ $ 7 E F 7 7 7 7 G G 7 Z 5 5 s t 5 5 5 5 u u 5 5 5 ..+.@.$ $ $ $ $ $ $ $ $ %   ",
"  # $ $ $ e e $ $ $ f f f f f 7 7 B B 7 Z 5 5 C D 5 5 5 5 k k 5 d #.f f f f f $ $ J J $ $ $ %   ",
"  # $ $ $ l l $ $ $ $.n o m m 7 7 G G 7 Z 5 5 s t 5 5 5 5 u u %.&.$ *.=.-.*.*.$ $ $ $ $ $ $ %   ",
"  # $ $ $ e e $ $ $ $ ;.>.7 7 7 g g g 7 Z 5 5 C D 5 5 5 5 ,.'.$ $ $ $ ).!.$ $ $ $ J J $ $ $ %   ",
"  # $ $ $ l l $ $ $ $ l ~.{.7 7 p q q 7 Z 5 5 s t 5 5 ].^./.(.$ $ $ $ (.@.$ $ $ $ $ $ $ $ $ %   ",
"  # $ $ $ e e $ $ $ $ e _.$ :.<.g g g 7 Z 5 5 C D 5 [.}.$ ).).$ $ $ $ ).!.$ $ $ $ J J $ $ $ %   ",
"  # $ $ $ l l $ $ $ $ l |.$ $ 1.2.3.q 7 Z 5 5 s u 4.$ $ $ (.(.$ $ $ $ (.@.$ $ $ $ $ $ $ $ $ %   ",
"  # $ $ $ e e $ $ $ $ e _.$ $ $ $ 5.6.7 Z 5 5 7.8.$ $ $ $ ).).$ $ $ $ ).!.$ $ $ $ J J $ $ $ %   ",
"  # $ $ $ l l $ $ $ $ l |.$ $ $ $ 9.9.0.a...b.9.c.$ $ $ $ (.(.$ $ $ $ (.@.$ $ $ $ $ $ $ $ $ %   ",
"  d.e.e.e.e.e.e.e.e.e.e.e.e.e.e.e.e.e.e.f.e.e.e.e.e.e.e.e.e.e.e.e.e.e.e.e.e.e.e.e.e.e.e.e.e.g.  ",
"                                                                                                "};
